<svg xmlns="http://www.w3.org/2000/svg" viewBox="0 0 57 57"><defs><style>.cls-1,.cls-2{fill:#fff;}.cls-2{stroke:#fff;stroke-width:2px;}.cls-2,.cls-3,.cls-5{stroke-miterlimit:10;}.cls-3,.cls-5{fill:#b22988;stroke:#b22988;}.cls-4{fill:#f3f5f8;}.cls-5{stroke-width:1.5px;}</style></defs><title>dangxuat</title><g id="v3.0"><path class="cls-1" d="M57,28.5A28.5,28.5,0,1,1,28.5,0,28.5,28.5,0,0,1,57,28.5"/><path class="cls-2" d="M34.48,36.76a.69.69,0,0,0-.69.69V42.3H17.17V14.61H33.79v4.84a.69.69,0,1,0,1.38,0V13.92a.69.69,0,0,0-.69-.69h-18a.69.69,0,0,0-.69.69V43a.69.69,0,0,0,.69.69h18a.69.69,0,0,0,.69-.69V37.46a.69.69,0,0,0-.69-.69"/><path class="cls-3" d="M34.48,44.19h-18A1.19,1.19,0,0,1,15.29,43V13.92a1.19,1.19,0,0,1,1.19-1.19h18a1.19,1.19,0,0,1,1.19,1.19v5.54a1.19,1.19,0,1,1-2.38,0V15.11H17.68V41.8H33.29V37.46a1.19,1.19,0,1,1,2.38,0V43A1.19,1.19,0,0,1,34.48,44.19Zm-18-30.46a.19.19,0,0,0-.19.19V43a.19.19,0,0,0,.19.19h18a.19.19,0,0,0,.19-.19V37.46c0-.21-.38-.21-.38,0V42.8H16.68V14.11H34.29v5.34c0,.21.38.21.38,0V13.92a.19.19,0,0,0-.19-.19Z"/><path class="cls-4" d="M47.43,28,40.51,21a.69.69,0,0,0-1,1l5.74,5.74H24.1a.69.69,0,1,0,0,1.38H45.27l-5.74,5.74a.69.69,0,1,0,1,1l6.92-6.92a.69.69,0,0,0,0-1"/><path class="cls-5" d="M47.43,28,40.51,21a.69.69,0,0,0-1,1l5.74,5.74H24.1a.69.69,0,1,0,0,1.38H45.27l-5.74,5.74a.69.69,0,1,0,1,1l6.92-6.92A.69.69,0,0,0,47.43,28Z"/></g></svg>